<svg width="17" height="18" viewBox="0 0 17 18" fill="none" xmlns="http://www.w3.org/2000/svg">
<path d="M8.50003 11.8333C10.0648 11.8333 11.3334 10.5648 11.3334 9.00001C11.3334 7.4352 10.0648 6.16667 8.50003 6.16667C6.93522 6.16667 5.6667 7.4352 5.6667 9.00001C5.6667 10.5648 6.93522 11.8333 8.50003 11.8333Z" fill="#B8C0CF"/>
<path fill-rule="evenodd" clip-rule="evenodd" d="M1.59155 9.34931C1.57514 9.32421 1.5606 9.29808 1.54797 9.27115C1.46516 9.09548 1.46935 8.89657 1.54797 8.72886C1.5606 8.70193 1.57514 8.6758 1.59155 8.65071C3.43842 5.70182 5.91573 4.11249 8.50001 4.11249C11.0843 4.11249 13.5616 5.70182 15.4085 8.6507C15.4249 8.67582 15.4395 8.70198 15.4521 8.72894C15.493 8.81581 15.5127 8.90836 15.5126 9.00001C15.5125 9.12343 15.4765 9.24523 15.4085 9.34931C13.5616 12.2982 11.0843 13.8875 8.50001 13.8875C5.91573 13.8875 3.43842 12.2982 1.59155 9.34931ZM8.50001 5.38749C6.56922 5.38749 4.54011 6.52417 2.88404 9C4.54011 11.4758 6.56922 12.6125 8.50001 12.6125C10.4308 12.6125 12.4599 11.4758 14.116 9C12.4599 6.52417 10.4308 5.38749 8.50001 5.38749Z" fill="#B8C0CF"/>
</svg>
